<svg xmlns="http://www.w3.org/2000/svg" viewBox="0 0 1024 1024" width="1024" height="1024">
<defs>
  <linearGradient id="a" x1="0" y1="0" x2="1" y2="1"><stop offset="0" stop-color="#528688"/><stop offset="1" stop-color="#365759"/></linearGradient>
  <linearGradient id="b" x1="0" y1="0" x2="1" y2="1"><stop offset="0" stop-color="#3C6264"/><stop offset="1" stop-color="#26403F"/></linearGradient>
  <filter id="k" x="-20%" y="-200%" width="140%" height="500%"><feGaussianBlur stdDeviation="14"/></filter>
</defs>
<ellipse cx="512" cy="835" rx="300" ry="22" fill="#1F3335" opacity=".10" filter="url(#k)"/>
<path d="M170 430 C165 330 260 235 380 232 C450 230 480 250 520 248 C600 244 650 215 735 240 C830 268 880 360 850 470 C825 575 745 690 600 750 C470 802 300 790 215 690 C175 640 172 520 170 430 Z" fill="#DCEBE8"/>
<circle cx="200" cy="320" r="12" fill="#F4A261"/><circle cx="850" cy="430" r="9" fill="#4F8184"/>

<rect x="260" y="270" width="380" height="470" rx="30" fill="#fff" stroke="#1F3335" stroke-width="16" stroke-linejoin="round" stroke-linecap="round"/>
<path d="M320 350 H520 M320 410 H500 M320 470 H450" stroke="#DCEBE8" stroke-width="18" stroke-linecap="round"/>
<path d="M320 560 H400 M320 620 H380" stroke="#DCEBE8" stroke-width="18" stroke-linecap="round"/>
<path d="M690 650 L790 750" stroke="#1F3335" stroke-width="44" stroke-linecap="round"/>
<path d="M690 650 L790 750" stroke="#4F8184" stroke-width="20" stroke-linecap="round"/>
<circle cx="620" cy="580" r="112" fill="#fff" fill-opacity=".92" stroke="#1F3335" stroke-width="22" stroke-linejoin="round" stroke-linecap="round"/>
<path d="M575 580 H665" stroke="#F4A261" stroke-width="20" stroke-linecap="round"/>

</svg>