<svg xmlns="http://www.w3.org/2000/svg" viewBox="0 0 1024 1024" width="1024" height="1024">
<defs>
  <linearGradient id="a" x1="0" y1="0" x2="1" y2="1"><stop offset="0" stop-color="#528688"/><stop offset="1" stop-color="#365759"/></linearGradient>
  <linearGradient id="b" x1="0" y1="0" x2="1" y2="1"><stop offset="0" stop-color="#3C6264"/><stop offset="1" stop-color="#26403F"/></linearGradient>
  <filter id="k" x="-20%" y="-200%" width="140%" height="500%"><feGaussianBlur stdDeviation="14"/></filter>
</defs>
<ellipse cx="512" cy="835" rx="300" ry="22" fill="#1F3335" opacity=".10" filter="url(#k)"/>
<path d="M170 430 C165 330 260 235 380 232 C450 230 480 250 520 248 C600 244 650 215 735 240 C830 268 880 360 850 470 C825 575 745 690 600 750 C470 802 300 790 215 690 C175 640 172 520 170 430 Z" fill="#DCEBE8"/>
<circle cx="200" cy="320" r="12" fill="#F4A261"/><circle cx="850" cy="430" r="9" fill="#4F8184"/>

<rect x="205" y="395" width="26" height="190" rx="13" fill="url(#a)" stroke="#1F3335" stroke-width="16" stroke-linejoin="round" stroke-linecap="round"/>
<rect x="205" y="560" width="120" height="30" rx="14" fill="url(#a)" stroke="#1F3335" stroke-width="16" stroke-linejoin="round" stroke-linecap="round"/>
<rect x="215" y="590" width="24" height="130" rx="10" fill="url(#b)" stroke="#1F3335" stroke-width="16" stroke-linejoin="round" stroke-linecap="round"/>
<rect x="793" y="395" width="26" height="190" rx="13" fill="url(#a)" stroke="#1F3335" stroke-width="16" stroke-linejoin="round" stroke-linecap="round"/>
<rect x="699" y="560" width="120" height="30" rx="14" fill="url(#a)" stroke="#1F3335" stroke-width="16" stroke-linejoin="round" stroke-linecap="round"/>
<rect x="785" y="590" width="24" height="130" rx="10" fill="url(#b)" stroke="#1F3335" stroke-width="16" stroke-linejoin="round" stroke-linecap="round"/>
<rect x="352" y="540" width="38" height="190" rx="12" fill="url(#b)" stroke="#1F3335" stroke-width="16" stroke-linejoin="round" stroke-linecap="round"/>
<rect x="634" y="540" width="38" height="190" rx="12" fill="url(#b)" stroke="#1F3335" stroke-width="16" stroke-linejoin="round" stroke-linecap="round"/>
<rect x="290" y="468" width="444" height="76" rx="28" fill="url(#a)" stroke="#1F3335" stroke-width="16" stroke-linejoin="round" stroke-linecap="round"/>
<path d="M455 468 L470 392 H554 L569 468 Z" fill="#D9EBE7" stroke="#1F3335" stroke-width="16" stroke-linejoin="round" stroke-linecap="round"/>
<path d="M556 408 Q600 408 598 438 Q596 462 566 462" fill="none" stroke="#1F3335" stroke-width="12" stroke-linecap="round"/>
<circle cx="512" cy="360" r="14" fill="#F4A261"/>

</svg>