<svg xmlns="http://www.w3.org/2000/svg" viewBox="0 0 240 160" fill="none">
  <ellipse cx="120" cy="140" rx="70" ry="9" fill="#e8ece9"/>
  <circle cx="120" cy="76" r="58" fill="#e8f2e9"/>
  <circle cx="120" cy="76" r="42" fill="#2e7d32"/>
  <path d="M100 77l14 14 27-30" stroke="#ffffff" stroke-width="9" stroke-linecap="round" stroke-linejoin="round"/>
  <circle cx="52" cy="40" r="6" fill="#3b5b5d"/>
  <circle cx="196" cy="52" r="5" fill="#9a5b00"/>
  <circle cx="184" cy="120" r="6" fill="#3b5b5d" fill-opacity=".55"/>
  <circle cx="60" cy="112" r="4" fill="#2e7d32" fill-opacity=".6"/>
  <rect x="26" y="74" width="12" height="4" rx="2" fill="#22383a" fill-opacity=".5" transform="rotate(-30 32 76)"/>
  <rect x="204" y="86" width="14" height="4" rx="2" fill="#2e7d32" fill-opacity=".6" transform="rotate(35 211 88)"/>
  <path d="M170 24l3 8 8 3-8 3-3 8-3-8-8-3 8-3z" fill="#3b5b5d" fill-opacity=".7"/>
</svg>
